<?xml version="1.0" encoding="utf-8"?>
<!-- Generator: Adobe Illustrator 28.3.0, SVG Export Plug-In . SVG Version: 6.00 Build 0)  -->
<svg version="1.1" id="_x32_" xmlns="http://www.w3.org/2000/svg" xmlns:xlink="http://www.w3.org/1999/xlink" x="0px" y="0px"
	 viewBox="0 0 512 512" style="enable-background:new 0 0 512 512;" xml:space="preserve">
<style type="text/css">
	.st0{fill:#478DCB;}
</style>
<g>
	<path class="st0" d="M380.5,347.3c-31.1-4.1-83.5-17.2-101.7-60.8c-27.7-66.2,16.6-119.6,62.9-126.7c29.3-4.5,58.8,14.2,58.8,40.6
		s-19.9,31.4-19.9,31.4s-18.9-12.2-27.7,6.1c-8.4,17.5,9.4,27.7,28.1,27.7c39.2,0,81.4-31.1,81.4-90.2
		c0-49.9-48.2-118.2-128.4-113.9c-75.7,4.1-127.1,43.3-168.1,116c-36,63.7-84.3,170.7-165.8,172v101.4h512V349.4
		C462.3,351.4,413.3,351.6,380.5,347.3z"/>
</g>
</svg>
